<svg width="482" height="100" viewBox="0 0 482 100" fill="none" xmlns="http://www.w3.org/2000/svg" aria-label='Garfinkle Orthodontics Full Logo'>
<path d="M46.113 100C42.8847 100 39.9699 99.2891 37.3684 97.8673C34.767 96.4146 32.7141 94.4365 31.2096 91.9329C29.7365 89.4293 29 86.632 29 83.5412C29 80.4503 29.7365 77.6531 31.2096 75.1495C32.7141 72.6459 34.767 70.6832 37.3684 69.2614C39.9699 67.8087 42.8847 67.0824 46.113 67.0824C49.3412 67.0824 52.2561 67.7933 54.8575 69.2151C57.4589 70.6369 59.4962 72.5996 60.9693 75.1032C62.4737 77.6067 63.2259 80.4194 63.2259 83.5412C63.2259 86.663 62.4737 89.4756 60.9693 91.9792C59.4962 94.4828 57.4589 96.4455 54.8575 97.8673C52.2561 99.2891 49.3412 100 46.113 100ZM46.113 97.8209C48.8711 97.8209 51.3628 97.2028 53.5881 95.9664C55.8135 94.7301 57.5686 93.0301 58.8537 90.8665C60.1387 88.672 60.7812 86.2302 60.7812 83.5412C60.7812 80.8521 60.1387 78.4258 58.8537 76.2622C57.5686 74.0677 55.8135 72.3523 53.5881 71.1159C51.3628 69.8796 48.8711 69.2614 46.113 69.2614C43.3548 69.2614 40.8474 69.8796 38.5908 71.1159C36.3655 72.3523 34.6103 74.0677 33.3253 76.2622C32.0402 78.4258 31.3977 80.8521 31.3977 83.5412C31.3977 86.2302 32.0402 88.672 33.3253 90.8665C34.6103 93.0301 36.3655 94.7301 38.5908 95.9664C40.8474 97.2028 43.3548 97.8209 46.113 97.8209Z" fill="white"/>
<path d="M100.032 99.7682L92.1812 88.9193C91.0215 89.0738 89.9559 89.1511 88.9843 89.1511H79.5815V99.7682H77.1838V67.3142H88.9843C93.1215 67.3142 96.3654 68.2878 98.7161 70.2351C101.067 72.1514 102.242 74.825 102.242 78.2558C102.242 80.8212 101.568 82.9848 100.221 84.7466C98.9042 86.4775 97.0079 87.6984 94.5319 88.4093L102.759 99.7682H100.032ZM88.9843 87.0648C92.4946 87.0648 95.1744 86.3075 97.0236 84.793C98.8728 83.2476 99.7974 81.0685 99.7974 78.2558C99.7974 75.4431 98.8728 73.2795 97.0236 71.765C95.1744 70.2196 92.4946 69.4469 88.9843 69.4469H79.5815V87.0648H88.9843Z" fill="white"/>
<path d="M122.503 69.4469H110.656V67.3142H136.748V69.4469H124.901V99.7682H122.503V69.4469Z" fill="white"/>
<path d="M175.134 67.3142V99.7682H172.736V84.3294H150.734V99.7682H148.336V67.3142H150.734V82.243H172.736V67.3142H175.134Z" fill="white"/>
<path d="M206.231 100C203.003 100 200.088 99.2891 197.487 97.8673C194.885 96.4146 192.832 94.4365 191.328 91.9329C189.855 89.4293 189.118 86.632 189.118 83.5412C189.118 80.4503 189.855 77.6531 191.328 75.1495C192.832 72.6459 194.885 70.6832 197.487 69.2614C200.088 67.8087 203.003 67.0824 206.231 67.0824C209.459 67.0824 212.374 67.7933 214.976 69.2151C217.577 70.6369 219.614 72.5996 221.087 75.1032C222.592 77.6067 223.344 80.4194 223.344 83.5412C223.344 86.663 222.592 89.4756 221.087 91.9792C219.614 94.4828 217.577 96.4455 214.976 97.8673C212.374 99.2891 209.459 100 206.231 100ZM206.231 97.8209C208.989 97.8209 211.481 97.2028 213.706 95.9664C215.932 94.7301 217.687 93.0301 218.972 90.8665C220.257 88.672 220.899 86.2302 220.899 83.5412C220.899 80.8521 220.257 78.4258 218.972 76.2622C217.687 74.0677 215.932 72.3523 213.706 71.1159C211.481 69.8796 208.989 69.2614 206.231 69.2614C203.473 69.2614 200.966 69.8796 198.709 71.1159C196.484 72.3523 194.728 74.0677 193.443 76.2622C192.158 78.4258 191.516 80.8521 191.516 83.5412C191.516 86.2302 192.158 88.672 193.443 90.8665C194.728 93.0301 196.484 94.7301 198.709 95.9664C200.966 97.2028 203.473 97.8209 206.231 97.8209Z" fill="white"/>
<path d="M237.302 67.3142H250.325C253.741 67.3142 256.766 68.0096 259.398 69.4005C262.063 70.7914 264.131 72.7232 265.604 75.1959C267.077 77.6377 267.814 80.4194 267.814 83.5412C267.814 86.663 267.077 89.4602 265.604 91.9329C264.131 94.3746 262.063 96.291 259.398 97.6819C256.766 99.0727 253.741 99.7682 250.325 99.7682H237.302V67.3142ZM250.137 97.6355C253.177 97.6355 255.857 97.0482 258.176 95.8737C260.495 94.6683 262.282 92.9992 263.536 90.8665C264.789 88.7338 265.416 86.2921 265.416 83.5412C265.416 80.7903 264.789 78.3486 263.536 76.2159C262.282 74.0832 260.495 72.4296 258.176 71.255C255.857 70.0496 253.177 69.4469 250.137 69.4469H239.7V97.6355H250.137Z" fill="white"/>
<path d="M295.748 100C292.52 100 289.605 99.2891 287.004 97.8673C284.402 96.4146 282.349 94.4365 280.845 91.9329C279.372 89.4293 278.635 86.632 278.635 83.5412C278.635 80.4503 279.372 77.6531 280.845 75.1495C282.349 72.6459 284.402 70.6832 287.004 69.2614C289.605 67.8087 292.52 67.0824 295.748 67.0824C298.976 67.0824 301.891 67.7933 304.493 69.2151C307.094 70.6369 309.131 72.5996 310.604 75.1032C312.109 77.6067 312.861 80.4194 312.861 83.5412C312.861 86.663 312.109 89.4756 310.604 91.9792C309.131 94.4828 307.094 96.4455 304.493 97.8673C301.891 99.2891 298.976 100 295.748 100ZM295.748 97.8209C298.506 97.8209 300.998 97.2028 303.223 95.9664C305.449 94.7301 307.204 93.0301 308.489 90.8665C309.774 88.672 310.416 86.2302 310.416 83.5412C310.416 80.8521 309.774 78.4258 308.489 76.2622C307.204 74.0677 305.449 72.3523 303.223 71.1159C300.998 69.8796 298.506 69.2614 295.748 69.2614C292.99 69.2614 290.483 69.8796 288.226 71.1159C286.001 72.3523 284.245 74.0677 282.96 76.2622C281.675 78.4258 281.033 80.8521 281.033 83.5412C281.033 86.2302 281.675 88.672 282.96 90.8665C284.245 93.0301 286.001 94.7301 288.226 95.9664C290.483 97.2028 292.99 97.8209 295.748 97.8209Z" fill="white"/>
<path d="M353.617 67.3142V99.7682H351.642L329.217 71.5796V99.7682H326.819V67.3142H328.841L351.219 95.5028V67.3142H353.617Z" fill="white"/>
<path d="M377.051 69.4469H365.203V67.3142H391.296V69.4469H379.449V99.7682H377.051V69.4469Z" fill="white"/>
<path d="M402.884 67.3142H405.281V99.7682H402.884V67.3142Z" fill="white"/>
<path d="M436.307 100C433.078 100 430.164 99.2891 427.562 97.8673C424.992 96.4455 422.955 94.4828 421.45 91.9792C419.977 89.4756 419.241 86.663 419.241 83.5412C419.241 80.4194 419.977 77.6067 421.45 75.1032C422.955 72.5996 424.992 70.6369 427.562 69.2151C430.164 67.7933 433.078 67.0824 436.307 67.0824C438.689 67.0824 440.883 67.4687 442.889 68.2415C444.895 68.9833 446.603 70.096 448.013 71.5796L446.509 73.1095C443.876 70.5441 440.507 69.2614 436.401 69.2614C433.643 69.2614 431.135 69.8796 428.879 71.1159C426.622 72.3523 424.851 74.0677 423.566 76.2622C422.281 78.4258 421.639 80.8521 421.639 83.5412C421.639 86.2302 422.281 88.672 423.566 90.8665C424.851 93.0301 426.622 94.7301 428.879 95.9664C431.135 97.2028 433.643 97.8209 436.401 97.8209C440.475 97.8209 443.845 96.5228 446.509 93.9265L448.013 95.4564C446.603 96.9401 444.879 98.0682 442.842 98.8409C440.836 99.6136 438.657 100 436.307 100Z" fill="white"/>
<path d="M470.153 100C467.739 100 465.436 99.5982 463.242 98.7946C461.079 97.96 459.386 96.8937 458.164 95.5955L459.245 93.8337C460.405 95.0392 461.957 96.0283 463.9 96.801C465.874 97.5428 467.943 97.9137 470.106 97.9137C473.24 97.9137 475.606 97.3264 477.205 96.1519C478.803 94.9774 479.602 93.4474 479.602 91.562C479.602 90.1093 479.179 88.9502 478.333 88.0848C477.487 87.2193 476.437 86.5548 475.183 86.0911C473.929 85.6275 472.237 85.1484 470.106 84.6539C467.692 84.0666 465.749 83.4948 464.276 82.9385C462.834 82.3821 461.596 81.5321 460.562 80.3885C459.559 79.214 459.057 77.6531 459.057 75.7059C459.057 74.1295 459.48 72.6923 460.327 71.3941C461.173 70.0651 462.458 69.0142 464.182 68.2415C465.937 67.4687 468.115 67.0824 470.717 67.0824C472.535 67.0824 474.321 67.3451 476.076 67.8705C477.831 68.396 479.352 69.1069 480.637 70.0032L479.743 71.9041C478.427 71.0078 476.97 70.3278 475.371 69.8641C473.804 69.4005 472.252 69.1687 470.717 69.1687C467.676 69.1687 465.373 69.7714 463.806 70.9769C462.239 72.1823 461.455 73.7432 461.455 75.6595C461.455 77.1122 461.878 78.2713 462.724 79.1367C463.571 80.0022 464.621 80.6667 465.874 81.1303C467.128 81.5939 468.836 82.0885 470.999 82.6139C473.412 83.2012 475.34 83.773 476.781 84.3294C478.223 84.8857 479.446 85.7357 480.449 86.8793C481.483 87.992 482 89.5065 482 91.4229C482 92.9992 481.561 94.4365 480.684 95.7346C479.837 97.0328 478.521 98.0682 476.734 98.8409C474.948 99.6136 472.754 100 470.153 100Z" fill="white"/>
<path d="M70.8531 26.6945H78.2662V47.2809C75.5892 49.4426 72.4747 51.1015 68.9226 52.2578C65.3705 53.4141 61.6639 53.9922 57.8029 53.9922C52.3461 53.9922 47.4298 52.8359 43.054 50.5234C38.6782 48.1606 35.2291 44.9432 32.7065 40.8712C30.2355 36.7489 29 32.1238 29 26.9961C29 21.8683 30.2355 17.2433 32.7065 13.121C35.2291 8.99869 38.6782 5.78128 43.054 3.46877C47.4812 1.15626 52.449 0 57.9574 0C62.2817 0 66.1941 0.703808 69.6948 2.11143C73.2469 3.46877 76.2584 5.47965 78.7295 8.14407L73.9419 12.8194C69.6176 8.74733 64.3924 6.71132 58.2663 6.71132C54.1479 6.71132 50.4413 7.59108 47.1466 9.3506C43.9034 11.0598 41.3551 13.4729 39.5019 16.5898C37.6486 19.6564 36.722 23.1251 36.722 26.9961C36.722 30.8168 37.6486 34.2855 39.5019 37.4024C41.3551 40.469 43.9034 42.8821 47.1466 44.6416C50.4413 46.4011 54.1221 47.2809 58.189 47.2809C63.0281 47.2809 67.2495 46.1497 70.8531 43.8875V26.6945Z" fill="white"/>
<path d="M127.491 40.1925H98.765L92.819 53.3889H84.8654L109.344 0.603261H116.989L141.545 53.3889H133.437L127.491 40.1925ZM124.788 34.1599L113.128 8.29488L101.468 34.1599H124.788Z" fill="white"/>
<path d="M185.747 53.3889L174.087 37.1762C172.645 37.2767 171.513 37.327 170.689 37.327H157.33V53.3889H149.608V0.603261H170.689C177.69 0.603261 183.199 2.2371 187.214 5.50479C191.229 8.77247 193.237 13.2718 193.237 19.0028C193.237 23.0749 192.208 26.5436 190.148 29.4091C188.089 32.2747 185.155 34.3609 181.345 35.668L194.164 53.3889H185.747ZM170.457 30.9173C175.348 30.9173 179.08 29.8867 181.654 27.8256C184.228 25.7644 185.515 22.8235 185.515 19.0028C185.515 15.1822 184.228 12.2664 181.654 10.2555C179.08 8.19434 175.348 7.16376 170.457 7.16376H157.33V30.9173H170.457Z" fill="white"/>
<path d="M213.435 7.16376V25.5633H240.539V32.0484H213.435V53.3889H205.713V0.603261H243.86V7.16376H213.435Z" fill="white"/>
<path d="M254.729 0.603261H262.451V53.3889H254.729V0.603261Z" fill="white"/>
<path d="M325.121 0.603261V53.3889H318.789L286.356 14.0259V53.3889H278.634V0.603261H284.966L317.399 39.9663V0.603261H325.121Z" fill="white"/>
<path d="M358.906 29.937L349.022 39.7401V53.3889H341.3V0.603261H349.022V30.0878L378.365 0.603261H387.168L364.08 24.3568L388.636 53.3889H379.601L358.906 29.937Z" fill="white"/>
<path d="M396.802 0.603261H404.523V46.8284H433.79V53.3889H396.802V0.603261Z" fill="white"/>
<path d="M481.878 46.8284V53.3889H442.651V0.603261H480.797V7.16376H450.373V23.3765H477.477V29.7862H450.373V46.8284H481.878Z" fill="white"/>
<line x1="1" y1="-4.37114e-08" x2="1" y2="100" stroke="white" stroke-width="2"/>
</svg>
