<svg width="66" height="100" viewBox="0 0 66 100" fill="none" xmlns="http://www.w3.org/2000/svg" aria-label='Garfinkle Orthodontics icon logo'>
<path d="M66 32.1839H58.4023H30.007V39.4636H57.8651C55.486 51.341 45.893 60.0766 33.1535 60.0766C18.3419 60.0766 7.67442 48.046 7.67442 33.41V33.2567C7.67442 18.6207 18.1884 6.74329 33 6.74329C41.5953 6.74329 48.886 10.8046 53.414 17.1647L59.6302 13.1034C53.7977 5.21073 44.5884 0 33.0767 0C13.4302 0 0 15.6322 0 33.41V33.5632C0 51.341 13.2 66.8199 32.9233 66.8199C52.6465 66.8199 66 51.1877 66 33.41V33.2567C66 32.8736 66 32.4904 66 32.1839Z"/>
<path d="M52.8767 100C52.3395 100 51.8023 99.8468 51.2651 99.5403L33 88.5058L14.7349 99.5403C13.5837 100.23 11.9721 100.077 10.9744 99.1571C10.3604 98.5441 10.0535 97.7778 10.0535 96.9349V77.3947C10.0535 75.7089 11.4349 74.3296 13.1232 74.3296C13.6604 74.3296 14.1977 74.4828 14.7349 74.7893L33 85.7472L51.2651 74.7127C51.7256 74.4062 52.3395 74.2529 52.8767 74.2529C54.5651 74.2529 55.9465 75.6322 55.9465 77.3181V96.8583C55.9465 97.7012 55.6395 98.4675 55.0256 99.0805C54.4116 99.6935 53.6442 100 52.8767 100ZM35.2256 87.1265L52.493 97.548C52.6465 97.6246 52.7232 97.6246 52.8767 97.6246C53.107 97.6246 53.2604 97.548 53.4139 97.3947C53.4907 97.3181 53.6442 97.0882 53.6442 96.8583V77.3947C53.6442 76.705 52.9535 76.4752 52.493 76.705L35.2256 87.1265ZM13.1232 76.6284C12.7395 76.6284 12.3558 76.9349 12.3558 77.3947V96.9349C12.3558 97.2414 12.5093 97.3947 12.586 97.4713C12.8163 97.7012 13.2 97.7778 13.507 97.548L30.7744 87.1265L13.507 76.705C13.4302 76.6284 13.2767 76.6284 13.1232 76.6284Z"/>
</svg>
